<svg width="137" height="48" viewBox="0 0 137 48" fill="none" xmlns="http://www.w3.org/2000/svg">
<path d="M1.68 3.72H8.592C9.76 3.72 10.732 3.956 11.508 4.428C12.284 4.9 12.856 5.504 13.224 6.24C13.592 6.976 13.776 7.752 13.776 8.568C13.776 9.344 13.632 10.016 13.344 10.584C13.064 11.152 12.664 11.596 12.144 11.916C12.928 12.244 13.528 12.756 13.944 13.452C14.36 14.14 14.568 14.912 14.568 15.768C14.568 16.816 14.372 17.732 13.98 18.516C13.596 19.3 13.012 19.912 12.228 20.352C11.452 20.784 10.488 21 9.336 21H1.68V3.72ZM9 17.928C9.44 17.928 9.832 17.836 10.176 17.652C10.52 17.46 10.788 17.192 10.98 16.848C11.18 16.504 11.28 16.104 11.28 15.648C11.28 15.008 11.084 14.492 10.692 14.1C10.3 13.708 9.736 13.512 9 13.512H4.992V17.928H9ZM8.544 10.464C9.128 10.464 9.592 10.312 9.936 10.008C10.288 9.704 10.464 9.248 10.464 8.64C10.464 8.096 10.296 7.648 9.96 7.296C9.624 6.944 9.152 6.768 8.544 6.768H4.992V10.464H8.544ZM24.3773 21.36C22.6733 21.36 21.1893 20.988 19.9253 20.244C18.6613 19.492 17.6893 18.436 17.0093 17.076C16.3373 15.716 16.0013 14.144 16.0013 12.36C16.0013 10.576 16.3373 9.004 17.0093 7.644C17.6893 6.284 18.6613 5.232 19.9253 4.488C21.1893 3.736 22.6733 3.36 24.3773 3.36C26.0813 3.36 27.5653 3.736 28.8293 4.488C30.0933 5.232 31.0613 6.284 31.7333 7.644C32.4133 9.004 32.7533 10.576 32.7533 12.36C32.7533 14.144 32.4133 15.716 31.7333 17.076C31.0613 18.436 30.0933 19.492 28.8293 20.244C27.5653 20.988 26.0813 21.36 24.3773 21.36ZM19.4573 12.36C19.4573 14.216 19.8813 15.668 20.7293 16.716C21.5773 17.764 22.8253 18.288 24.4733 18.288C25.5293 18.288 26.4173 18.044 27.1373 17.556C27.8573 17.068 28.3973 16.38 28.7573 15.492C29.1173 14.604 29.2973 13.56 29.2973 12.36C29.2973 10.504 28.8733 9.052 28.0253 8.004C27.1773 6.956 25.9293 6.432 24.2813 6.432C23.2253 6.432 22.3373 6.676 21.6172 7.164C20.8973 7.652 20.3573 8.34 19.9973 9.228C19.6373 10.116 19.4573 11.16 19.4573 12.36ZM35.1488 3.72H38.4608L45.9728 15.24V3.72H49.2848V21H45.9728L38.4608 9.48V21H35.1488V3.72ZM52.6331 3.72H63.9131V6.768H55.8971V10.464H62.4731V13.512H55.8971V17.952H63.9131V21H52.6331V3.72ZM71.0134 13.968L65.1094 3.72H68.9254L72.6694 10.224L76.4134 3.72H80.2294L74.3254 13.968V21H71.0134V13.968ZM85.7503 3.72H88.6783L94.3903 15.192L100.102 3.72H103.03V21H99.9823V10.68L94.9663 21H93.8143L88.7983 10.68V21H85.7503V3.72Z" fill="#1B1830"/>
<path d="M1.28 31.48H3.208V41.192H8.296V43H1.28V31.48ZM9.81125 31.28H11.7393V33.048H9.81125V31.28ZM9.81125 34.36H11.7393V43H9.81125V34.36ZM13.3356 42.736L17.9116 36.048H13.7996V34.36H20.9116V34.632L16.3516 41.312H20.7196V43H13.3356V42.736ZM25.87 31.48H27.606L31.59 39.64L35.574 31.48H37.31V43H35.51V35.616L31.974 43H31.206L27.678 35.616V43H25.87V31.48ZM39.7175 31.28H41.6455V33.048H39.7175V31.28ZM39.7175 34.36H41.6455V43H39.7175V34.36ZM49.1059 43C48.5832 43.1013 48.0952 43.152 47.6419 43.152C47.0232 43.152 46.4819 43.056 46.0179 42.864C45.5539 42.6667 45.2072 42.3573 44.9779 41.936C44.8392 41.6853 44.7485 41.4267 44.7059 41.16C44.6632 40.8933 44.6419 40.576 44.6419 40.208L44.6499 39.472V35.872H43.0819V34.36H44.6499V31.96H46.5699V34.36H49.1059V35.872H46.5699V39.36V39.816C46.5699 40.0933 46.5805 40.3173 46.6019 40.488C46.6232 40.6587 46.6712 40.8 46.7459 40.912C46.8685 41.1147 47.0392 41.2587 47.2579 41.344C47.4819 41.4293 47.7565 41.472 48.0819 41.472C48.3805 41.472 48.7219 41.4427 49.1059 41.384V43ZM54.2783 43.24C53.4089 43.24 52.6543 43.0453 52.0143 42.656C51.3796 42.2613 50.8943 41.72 50.5583 41.032C50.2223 40.3387 50.0516 39.5547 50.0463 38.68C50.0463 37.8 50.2196 37.016 50.5663 36.328C50.9129 35.6347 51.4063 35.0933 52.0463 34.704C52.6916 34.3147 53.4436 34.12 54.3023 34.12C54.9529 34.12 55.5423 34.232 56.0703 34.456C56.5983 34.68 57.0383 35 57.3903 35.416C57.7476 35.8267 57.9929 36.3147 58.1263 36.88L56.2063 37.4C56.0623 36.9413 55.8143 36.5813 55.4623 36.32C55.1156 36.0587 54.7209 35.928 54.2783 35.928C53.5529 35.928 53.0063 36.1787 52.6383 36.68C52.2756 37.1813 52.0916 37.848 52.0863 38.68C52.0916 39.528 52.2809 40.2 52.6543 40.696C53.0276 41.1867 53.5689 41.432 54.2783 41.432C54.7796 41.432 55.1796 41.32 55.4783 41.096C55.7769 40.8667 56.0036 40.5227 56.1583 40.064L58.1263 40.504C57.8596 41.384 57.3929 42.0613 56.7263 42.536C56.0596 43.0053 55.2436 43.24 54.2783 43.24ZM65.7054 38.84C65.7054 36.8987 65.0334 35.928 63.6894 35.928C63.108 35.928 62.6254 36.128 62.2414 36.528C61.8574 36.9227 61.6654 37.6 61.6654 38.56V43H59.7134V31.48H61.4334V35.32C61.7587 34.936 62.1587 34.64 62.6334 34.432C63.108 34.2187 63.6494 34.112 64.2574 34.112C65.2227 34.112 65.956 34.3573 66.4574 34.848C66.9587 35.3333 67.284 35.8747 67.4334 36.472C67.5827 37.0693 67.6574 37.6373 67.6574 38.176V43H65.7054V38.84ZM73.673 43.24C72.809 43.24 72.0437 43.0507 71.377 42.672C70.7103 42.2933 70.1903 41.7653 69.817 41.088C69.449 40.4107 69.265 39.64 69.265 38.776C69.265 37.8427 69.4437 37.0267 69.801 36.328C70.1637 35.624 70.6703 35.08 71.321 34.696C71.9717 34.312 72.7183 34.12 73.561 34.12C74.393 34.12 75.113 34.304 75.721 34.672C76.329 35.04 76.7957 35.5653 77.121 36.248C77.4463 36.9253 77.609 37.7227 77.609 38.64C77.609 38.8213 77.601 39.0133 77.585 39.216H71.329C71.4037 39.9307 71.6303 40.48 72.009 40.864C72.393 41.2427 72.9103 41.432 73.561 41.432C74.0303 41.432 74.4383 41.328 74.785 41.12C75.1317 40.9067 75.3983 40.6 75.585 40.2L77.489 40.776C77.2703 41.288 76.9663 41.7307 76.577 42.104C76.193 42.472 75.7503 42.7547 75.249 42.952C74.753 43.144 74.2277 43.24 73.673 43.24ZM75.633 37.76C75.5477 37.088 75.3423 36.5947 75.017 36.28C74.697 35.9653 74.2383 35.808 73.641 35.808C72.361 35.808 71.6063 36.4587 71.377 37.76H75.633ZM79.53 31.48H81.458V43H79.53V31.48ZM84.0144 31.48H85.9424V43H84.0144V31.48Z" fill="#1B1830"/>
<path d="M123.431 1.72156C124.273 0.797784 125.727 0.797784 126.569 1.72156C127.127 2.33437 127.991 2.5659 128.781 2.31436C129.972 1.93517 131.231 2.66203 131.498 3.88286C131.675 4.69274 132.307 5.32529 133.117 5.50241C134.338 5.76941 135.065 7.02837 134.686 8.21915C134.434 9.00908 134.666 9.87316 135.278 10.4315C136.202 11.2731 136.202 12.7269 135.278 13.5685C134.666 14.1268 134.434 14.9909 134.686 15.7809C135.065 16.9716 134.338 18.2306 133.117 18.4976C132.307 18.6747 131.675 19.3073 131.498 20.1171C131.231 21.338 129.972 22.0648 128.781 21.6856C127.991 21.4341 127.127 21.6656 126.569 22.2784C125.727 23.2022 124.273 23.2022 123.431 22.2784C122.873 21.6656 122.009 21.4341 121.219 21.6856C120.028 22.0648 118.769 21.338 118.502 20.1171C118.325 19.3073 117.693 18.6747 116.883 18.4976C115.662 18.2306 114.935 16.9716 115.314 15.7809C115.566 14.9909 115.334 14.1268 114.722 13.5685C113.798 12.7269 113.798 11.2731 114.722 10.4315C115.334 9.87316 115.566 9.00908 115.314 8.21915C114.935 7.02837 115.662 5.76941 116.883 5.50241C117.693 5.32529 118.325 4.69274 118.502 3.88286C118.769 2.66203 120.028 1.93517 121.219 2.31436C122.009 2.5659 122.873 2.33437 123.431 1.72156Z" fill="#343CFF"/>
<path d="M121 12L124 15L130 9" stroke="white" stroke-width="2" stroke-linecap="round"/>
</svg>
