<svg width="20" height="20" viewBox="0 0 20 20" fill="none" xmlns="http://www.w3.org/2000/svg">
<path d="M14.5817 11.985C14.3308 11.86 13.1092 11.2625 12.8817 11.18C12.6542 11.0958 12.4875 11.055 12.3208 11.305C12.1567 11.5508 11.6783 12.1083 11.5342 12.2733C11.3883 12.4358 11.2433 12.4483 10.9958 12.3358C10.7458 12.2108 9.94333 11.9483 8.99333 11.0983C8.25333 10.4358 7.75667 9.62333 7.61 9.37333C7.465 9.12333 7.59417 8.98583 7.71833 8.86083C7.83167 8.74833 7.96917 8.57333 8.09417 8.425C8.21583 8.27417 8.25583 8.17417 8.34167 8.01167C8.425 7.83667 8.3825 7.69917 8.32083 7.575C8.25833 7.45 7.76083 6.225 7.5525 5.73667C7.3525 5.25 7.14667 5.31167 6.9925 5.31167C6.84917 5.29917 6.68333 5.29917 6.51667 5.29917C6.35 5.29917 6.08083 5.36083 5.8525 5.59833C5.625 5.84833 4.98167 6.44833 4.98167 7.66083C4.98167 8.87333 5.87333 10.0483 5.9975 10.2233C6.12167 10.3858 7.75167 12.8858 10.2475 13.9608C10.8425 14.2108 11.3058 14.3608 11.6675 14.485C12.2625 14.6742 12.805 14.6475 13.2342 14.5858C13.7125 14.51 14.7067 13.985 14.9142 13.3975C15.1267 12.81 15.1267 12.3225 15.0642 12.21C15.0025 12.0975 14.8392 12.035 14.5892 11.9225L14.5817 11.985ZM10.0508 18.125H10.0375C8.5625 18.125 7.10083 17.725 5.825 16.975L5.525 16.7967L2.4 17.6092L3.2375 14.5717L3.03833 14.2592C2.21333 12.9458 1.775 11.4333 1.775 9.87583C1.775 5.33833 5.4875 1.63833 10.06 1.63833C12.2717 1.63833 14.3475 2.50083 15.9108 4.06333C17.4733 5.6125 18.335 7.68833 18.335 9.88833C18.3317 14.425 14.6183 18.1258 10.0558 18.1258L10.0508 18.125ZM17.1 2.87417C15.2 1.0375 12.7 0 10.0375 0C4.5525 0 0.0866667 4.445 0.0841667 9.91083C0.0841667 11.6575 0.541667 13.3608 1.41333 14.865L0 20L5.27917 18.6233C6.73417 19.4092 8.37083 19.8267 10.0375 19.8292H10.0425C15.53 19.8292 19.9975 15.3825 20 9.91583C20 7.26917 18.9667 4.77833 17.0875 2.90667" fill="#FF4034"/>
</svg>
